# xmcd
#
# Track frame offsets:
#	150
#	11520
#	24345
#	37341
#	52958
#	66455
#	81488
#	95350
#	110144
#	121913
#	134977
#	146980
#	158761
#	171630
#	183300
#	196329
#	207246
#	219384
#	232070
#	242797
#	253708
#	265299
#	278087
#	289856
#
# Disc length: 4054 seconds
#
# Revision: 1
# Processed by: cddbd v1.5.2PL0 Copyright (c) Steve Scherf et al.
# Submitted via: EasyCDDAExtractor 2010.6.0.0
#
DISCID=800fd418
DTITLE=Various Artist - La Fiesta Del 40 Tangos Para Bailar-18
DYEAR=2011
DGENRE=Tango
TTITLE0=Aníbal Troilo Con Francisco Fiorentino - El Bulin De La Calle Ayacucho
TTITLE1=Aníbal Troilo Con Francisco Fiorentino - Soy Muchacho De La Guardia
TTITLE2=Aníbal Troilo Con Francisco Fiorentino - No Le Digas Que La Quiero
TTITLE3=Aníbal Troilo Con Francisco Fiorentino - En Esta Tarde Gris
TTITLE4=Francisco Canaro - Mersa Burrera
TTITLE5=Francisco Canaro - Tiempos Viejos
TTITLE6=Francisco Canaro - Sin Rumbo
TTITLE7=Francisco Canaro - Chique
TTITLE8=Angel D'agostino Con Angel Vargas - La Ultima Cita
TTITLE9=Angel D'agostino Con Angel Vargas - Rondando Tu Esquina
TTITLE10=Angel D'agostino Con Angel Vargas - Ave De Paso
TTITLE11=Angel D'agostino Con Angel Vargas - Demasiado Tarde
TTITLE12=Típica Victor - Hilos De Plata
TTITLE13=Típica Victor - Retintin
TTITLE14=Típica Victor - Negro
TTITLE15=Típica Victor - Pato
TTITLE16=Enrique Rodríguez Con Armando Moreno - Suerte Loca
TTITLE17=Enrique Rodríguez Con Armando Moreno - Llorar Por Una Mujer
TTITLE18=Enrique Rodríguez Con Armando Moreno - Como Se Pianta La Vida
TTITLE19=Enrique Rodríguez Con Armando Moreno - En La Buena En La Mala
TTITLE20=Domingo Federico - Saludos
TTITLE21=Domingo Federico - Con El Mayor Gusto
TTITLE22=Domingo Federico - Futuro
TTITLE23=Domingo Federico - Honda Tristeza
EXTD=
EXTT0=
EXTT1=
EXTT2=
EXTT3=
EXTT4=
EXTT5=
EXTT6=
EXTT7=
EXTT8=
EXTT9=
EXTT10=
EXTT11=
EXTT12=
EXTT13=
EXTT14=
EXTT15=
EXTT16=
EXTT17=
EXTT18=
EXTT19=
EXTT20=
EXTT21=
EXTT22=
EXTT23=
PLAYORDER=
